<?xml version="1.0" standalone="no"?>
<!DOCTYPE svg PUBLIC "-//W3C//DTD SVG 1.1//EN" "http://www.w3.org/Graphics/SVG/1.1/DTD/svg11.dtd">
<svg width="100%" height="100%" viewBox="0 0 200 200" version="1.1" xmlns="http://www.w3.org/2000/svg" xmlns:xlink="http://www.w3.org/1999/xlink" xml:space="preserve" style="fill-rule:evenodd;clip-rule:evenodd;stroke-linejoin:round;stroke-miterlimit:1.41421;">
    <g id="Fill_color">
        <path d="M162.364,61.0582L121.265,61.0582C118.357,61.0582 116,58.7012 116,55.7937L116,45.2646C116,42.357 118.357,40 121.265,40L178.157,40C179.586,40 180.882,40.5694 181.831,41.4936L181.835,41.4976C181.835,41.4976 181.849,41.5119 181.849,41.5119C182.82,42.4668 183.422,43.7954 183.422,45.2646C183.422,45.2646 183.422,151.268 183.422,151.268C183.422,152.737 182.82,154.065 181.849,155.02L181.835,155.035C181.835,155.035 181.831,155.038 181.831,155.038C180.882,155.963 179.586,156.532 178.157,156.532C178.157,156.532 137.058,156.532 137.058,156.532L137.058,176.639C137.058,179.546 134.701,181.904 131.794,181.904L121.265,181.904C118.357,181.904 116,179.546 116,176.639L116,151.268C116,151.268 116,140.738 116,140.738C116,137.831 118.357,135.474 121.265,135.474C121.265,135.474 162.364,135.474 162.364,135.474L162.364,61.0582Z" style="fill:none;stroke-width:2.21px;stroke:white;"/>
        <path d="M101,118.2C90.416,118.2 81.8,109.584 81.8,99C81.8,88.416 90.416,79.8 101,79.8C111.584,79.8 120.2,88.416 120.2,99C120.2,109.584 111.584,118.2 101,118.2M101,75C87.764,75 77,85.764 77,99C77,112.236 87.764,123 101,123C114.236,123 125,112.236 125,99C125,85.764 114.236,75 101,75" style="fill:white;fill-rule:nonzero;"/>
        <path d="M38.6365,135.942L79.7354,135.942C82.643,135.942 85,138.299 85,141.206L85,151.735C85,154.643 82.643,157 79.7354,157L22.8428,157C21.4138,157 20.1177,156.431 19.1692,155.506L19.1651,155.502C19.1651,155.502 19.1506,155.488 19.1506,155.488C18.18,154.533 17.5782,153.205 17.5782,151.735C17.5782,151.735 17.5782,45.7324 17.5782,45.7324C17.5782,44.2633 18.18,42.9347 19.1506,41.9797L19.1651,41.9654C19.1651,41.9654 19.1692,41.9615 19.1692,41.9615C20.1177,41.0372 21.4138,40.4679 22.8428,40.4679C22.8428,40.4679 63.9418,40.4679 63.9418,40.4679L63.9418,20.3611C63.9418,17.4535 66.2988,15.0965 69.2063,15.0965L79.7354,15.0965C82.643,15.0965 85,17.4535 85,20.3611L85,45.7324C85,45.7324 85,56.2615 85,56.2615C85,59.1691 82.643,61.5261 79.7354,61.5261C79.7354,61.5261 38.6365,61.5261 38.6365,61.5261L38.6365,135.942Z" style="fill:none;stroke-width:2.21px;stroke:white;"/>
    </g>
</svg>
