<?xml version="1.0" standalone="no"?>
<!DOCTYPE svg PUBLIC "-//W3C//DTD SVG 1.1//EN" "http://www.w3.org/Graphics/SVG/1.1/DTD/svg11.dtd">
<svg width="100%" height="100%" viewBox="0 0 530 130" version="1.1" xmlns="http://www.w3.org/2000/svg" xmlns:xlink="http://www.w3.org/1999/xlink" xml:space="preserve" style="fill-rule:evenodd;clip-rule:evenodd;stroke-linejoin:round;stroke-miterlimit:1.41421;">
    <g id="pict curv-2">
        <g>
            <path d="M237.45,33.65L253.2,33.65C255.733,33.65 257.8,34.023 259.4,34.7689C261,35.5148 262.233,36.4473 263.1,37.5662C263.967,38.6851 264.558,39.9057 264.875,41.228C265.192,42.5504 265.35,43.771 265.35,44.8899C265.35,46.0088 265.192,47.221 264.875,48.5263C264.558,49.8317 263.967,51.0439 263.1,52.1628C262.233,53.2817 261,54.2056 259.4,54.9346C257.8,55.6636 255.733,56.0281 253.2,56.0281L243.7,56.0281L243.7,69.9635L237.45,69.9635L237.45,33.65ZM243.7,50.8404L252.85,50.8404C253.55,50.8404 254.267,50.7387 255,50.5353C255.733,50.3318 256.408,50.0013 257.025,49.5435C257.642,49.0858 258.142,48.4755 258.525,47.7126C258.908,46.9497 259.1,45.9919 259.1,44.839C259.1,43.6523 258.933,42.669 258.6,41.8892C258.267,41.1094 257.817,40.4906 257.25,40.0328C256.683,39.5751 256.033,39.2615 255.3,39.0919C254.567,38.9224 253.783,38.8376 252.95,38.8376L243.7,38.8376L243.7,50.8404Z" style="fill:white;fill-rule:nonzero;"/>
            <rect x="270.8" y="33.65" width="6.25" height="36.3135" style="fill:white;fill-rule:nonzero;"/>
            <path d="M308.8,45.1951C308.533,44.144 308.167,43.1776 307.7,42.2961C307.233,41.4145 306.633,40.6516 305.9,40.0074C305.167,39.3632 304.308,38.8631 303.325,38.5071C302.342,38.151 301.2,37.973 299.9,37.973C298,37.973 296.358,38.363 294.975,39.1428C293.592,39.9226 292.467,40.9653 291.6,42.2706C290.733,43.576 290.092,45.0594 289.675,46.7208C289.258,48.3822 289.05,50.0776 289.05,51.8068C289.05,53.536 289.258,55.2313 289.675,56.8927C290.092,58.5541 290.733,60.0375 291.6,61.3429C292.467,62.6483 293.592,63.6909 294.975,64.4707C296.358,65.2506 298,65.6405 299.9,65.6405C301.3,65.6405 302.533,65.3947 303.6,64.903C304.667,64.4114 305.583,63.7333 306.35,62.8687C307.117,62.0041 307.717,60.9953 308.15,59.8425C308.583,58.6897 308.867,57.4521 309,56.1298L315.1,56.1298C314.967,58.2998 314.508,60.2833 313.725,62.0803C312.942,63.8774 311.883,65.4286 310.55,66.734C309.217,68.0394 307.65,69.0481 305.85,69.7601C304.05,70.4721 302.067,70.8281 299.9,70.8281C297.233,70.8281 294.842,70.328 292.725,69.3278C290.608,68.3276 288.817,66.9628 287.35,65.2336C285.883,63.5044 284.758,61.487 283.975,59.1814C283.192,56.8757 282.8,54.4175 282.8,51.8068C282.8,49.2299 283.192,46.7887 283.975,44.483C284.758,42.1774 285.883,40.16 287.35,38.4308C288.817,36.7016 290.608,35.3284 292.725,34.3112C294.842,33.294 297.233,32.7854 299.9,32.7854C301.9,32.7854 303.783,33.0651 305.55,33.6246C307.317,34.184 308.875,34.9978 310.225,36.0658C311.575,37.1339 312.667,38.4308 313.5,39.9566C314.333,41.4823 314.85,43.2285 315.05,45.1951L308.8,45.1951Z" style="fill:white;fill-rule:nonzero;"/>
            <path d="M317.4,33.65L346.3,33.65L346.3,39.1428L334.95,39.1428L334.95,69.9635L328.7,69.9635L328.7,39.1428L317.4,39.1428L317.4,33.65Z" style="fill:white;fill-rule:nonzero;"/>
            <path d="M350.05,33.65L356.3,33.65L356.3,54.8075C356.3,56.0281 356.358,57.2657 356.475,58.5202C356.592,59.7747 356.925,60.9021 357.475,61.9023C358.025,62.9026 358.858,63.7248 359.975,64.369C361.092,65.0132 362.667,65.3353 364.7,65.3353C366.733,65.3353 368.308,65.0132 369.425,64.369C370.542,63.7248 371.375,62.9026 371.925,61.9023C372.475,60.9021 372.808,59.7747 372.925,58.5202C373.042,57.2657 373.1,56.0281 373.1,54.8075L373.1,33.65L379.35,33.65L379.35,56.8927C379.35,59.2322 379,61.2666 378.3,62.9958C377.6,64.725 376.608,66.1745 375.325,67.3443C374.042,68.514 372.5,69.3871 370.7,69.9635C368.9,70.5399 366.9,70.8281 364.7,70.8281C362.5,70.8281 360.5,70.5399 358.7,69.9635C356.9,69.3871 355.358,68.514 354.075,67.3443C352.792,66.1745 351.8,64.725 351.1,62.9958C350.4,61.2666 350.05,59.2322 350.05,56.8927L350.05,33.65Z" style="fill:white;fill-rule:nonzero;"/>
            <path d="M386.55,33.65L403.6,33.65C407.533,33.65 410.483,34.5146 412.45,36.2438C414.417,37.973 415.4,40.3804 415.4,43.4658C415.4,45.1951 415.15,46.6276 414.65,47.7635C414.15,48.8993 413.567,49.8148 412.9,50.5099C412.233,51.2049 411.575,51.705 410.925,52.0102C410.275,52.3154 409.8,52.5188 409.5,52.6205L409.5,52.7222C410.033,52.79 410.608,52.9596 411.225,53.2308C411.842,53.5021 412.417,53.9344 412.95,54.5277C413.483,55.1211 413.925,55.8925 414.275,56.8418C414.625,57.7912 414.8,58.9779 414.8,60.402C414.8,62.5381 414.958,64.4792 415.275,66.2254C415.592,67.9715 416.083,69.2176 416.75,69.9635L410.05,69.9635C409.583,69.1837 409.308,68.3191 409.225,67.3697C409.142,66.4203 409.1,65.5049 409.1,64.6233C409.1,62.9619 409,61.5294 408.8,60.3257C408.6,59.122 408.233,58.1218 407.7,57.325C407.167,56.5282 406.442,55.9433 405.525,55.5704C404.608,55.1974 403.433,55.0109 402,55.0109L392.8,55.0109L392.8,69.9635L386.55,69.9635L386.55,33.65ZM392.8,50.1793L403.05,50.1793C405.05,50.1793 406.567,49.6961 407.6,48.7298C408.633,47.7635 409.15,46.314 409.15,44.3813C409.15,43.2285 408.983,42.2876 408.65,41.5586C408.317,40.8296 407.858,40.2617 407.275,39.8548C406.692,39.448 406.025,39.1767 405.275,39.0411C404.525,38.9055 403.75,38.8376 402.95,38.8376L392.8,38.8376L392.8,50.1793Z" style="fill:white;fill-rule:nonzero;"/>
            <path d="M421.75,33.65L447.45,33.65L447.45,39.1428L428,39.1428L428,48.6535L446,48.6535L446,53.8411L428,53.8411L428,64.4707L447.8,64.4707L447.8,69.9635L421.75,69.9635L421.75,33.65Z" style="fill:white;fill-rule:nonzero;"/>
            <path d="M457.35,57.859C457.35,59.2492 457.583,60.4359 458.05,61.4192C458.517,62.4025 459.167,63.2077 460,63.835C460.833,64.4623 461.792,64.92 462.875,65.2082C463.958,65.4964 465.133,65.6405 466.4,65.6405C467.767,65.6405 468.933,65.4794 469.9,65.1573C470.867,64.8352 471.65,64.4199 472.25,63.9113C472.85,63.4027 473.283,62.8178 473.55,62.1566C473.817,61.4955 473.95,60.8258 473.95,60.1477C473.95,58.7575 473.642,57.7319 473.025,57.0707C472.408,56.4095 471.733,55.9433 471,55.6721C469.733,55.1974 468.258,54.7481 466.575,54.3243C464.892,53.9005 462.817,53.3495 460.35,52.6714C458.817,52.2645 457.542,51.7305 456.525,51.0693C455.508,50.4081 454.7,49.6707 454.1,48.8569C453.5,48.0432 453.075,47.1786 452.825,46.2631C452.575,45.3476 452.45,44.4152 452.45,43.4658C452.45,41.6349 452.825,40.0498 453.575,38.7105C454.325,37.3712 455.317,36.2608 456.55,35.3792C457.783,34.4977 459.183,33.845 460.75,33.4211C462.317,32.9973 463.9,32.7854 465.5,32.7854C467.367,32.7854 469.125,33.0312 470.775,33.5229C472.425,34.0145 473.875,34.752 475.125,35.7352C476.375,36.7185 477.367,37.9307 478.1,39.3717C478.833,40.8127 479.2,42.4826 479.2,44.3813L472.95,44.3813C472.783,42.0418 472,40.3889 470.6,39.4225C469.2,38.4562 467.417,37.973 465.25,37.973C464.517,37.973 463.767,38.0493 463,38.2019C462.233,38.3545 461.533,38.6088 460.9,38.9648C460.267,39.3208 459.742,39.804 459.325,40.4143C458.908,41.0246 458.7,41.7875 458.7,42.703C458.7,43.9914 459.092,45.0001 459.875,45.7291C460.658,46.4581 461.683,47.009 462.95,47.382C463.083,47.4159 463.608,47.56 464.525,47.8143C465.442,48.0686 466.467,48.3483 467.6,48.6535C468.733,48.9586 469.842,49.2553 470.925,49.5435C472.008,49.8317 472.783,50.0436 473.25,50.1793C474.417,50.5522 475.433,51.0608 476.3,51.705C477.167,52.3493 477.892,53.0867 478.475,53.9174C479.058,54.7481 479.492,55.6382 479.775,56.5875C480.058,57.5369 480.2,58.4863 480.2,59.4357C480.2,61.47 479.792,63.2077 478.975,64.6487C478.158,66.0898 477.083,67.268 475.75,68.1835C474.417,69.0989 472.9,69.7686 471.2,70.1924C469.5,70.6162 467.767,70.8281 466,70.8281C463.967,70.8281 462.05,70.5738 460.25,70.0653C458.45,69.5567 456.883,68.7768 455.55,67.7257C454.217,66.6746 453.15,65.3269 452.35,63.6824C451.55,62.038 451.133,60.0968 451.1,57.859L457.35,57.859Z" style="fill:white;fill-rule:nonzero;"/>
        </g>
    </g>
    <g id="prist curve">
        <g>
            <path d="M39.85,34L55.05,34C56.05,34 57.1583,34.1167 58.375,34.35C59.5917,34.5833 60.725,35.0583 61.775,35.775C62.825,36.4917 63.7,37.5083 64.4,38.825C65.1,40.1417 65.45,41.8667 65.45,44C65.45,47.1333 64.4833,49.55 62.55,51.25C60.6167,52.95 57.85,53.8 54.25,53.8L42.05,53.8L42.05,69.7L39.85,69.7L39.85,34ZM42.05,51.9L54.6,51.9C56.2,51.9 57.5583,51.6583 58.675,51.175C59.7917,50.6917 60.6833,50.0667 61.35,49.3C62.0167,48.5333 62.5,47.6833 62.8,46.75C63.1,45.8167 63.25,44.8833 63.25,43.95C63.25,43.2833 63.15,42.4917 62.95,41.575C62.75,40.6583 62.35,39.775 61.75,38.925C61.15,38.075 60.3083,37.3583 59.225,36.775C58.1417,36.1917 56.7,35.9 54.9,35.9L42.05,35.9L42.05,51.9Z" style="fill:white;fill-rule:nonzero;"/>
            <path d="M69.4,34L84.3,34C85.8667,34 87.3333,34.1583 88.7,34.475C90.0667,34.7917 91.2667,35.3083 92.3,36.025C93.3333,36.7417 94.1417,37.6833 94.725,38.85C95.3083,40.0167 95.6,41.4667 95.6,43.2C95.6,45.6 94.925,47.625 93.575,49.275C92.225,50.925 90.35,51.95 87.95,52.35L87.95,52.45C89.5833,52.65 90.875,53.0833 91.825,53.75C92.775,54.4167 93.4833,55.2333 93.95,56.2C94.4167,57.1667 94.7167,58.2333 94.85,59.4C94.9833,60.5667 95.05,61.7333 95.05,62.9C95.05,63.6 95.05,64.2833 95.05,64.95C95.05,65.6167 95.0833,66.2417 95.15,66.825C95.2167,67.4083 95.325,67.95 95.475,68.45C95.625,68.95 95.8333,69.3667 96.1,69.7L93.65,69.7C93.1833,68.8667 92.925,67.8917 92.875,66.775C92.825,65.6583 92.8,64.5 92.8,63.3C92.8,62.1 92.75,60.9083 92.65,59.725C92.55,58.5417 92.2333,57.4833 91.7,56.55C91.1667,55.6167 90.325,54.8667 89.175,54.3C88.025,53.7333 86.4,53.45 84.3,53.45L71.6,53.45L71.6,69.7L69.4,69.7L69.4,34ZM84.3,51.55C85.6,51.55 86.8083,51.3917 87.925,51.075C89.0417,50.7583 90,50.2667 90.8,49.6C91.6,48.9333 92.2333,48.0833 92.7,47.05C93.1667,46.0167 93.4,44.7833 93.4,43.35C93.4,42.0167 93.15,40.875 92.65,39.925C92.15,38.975 91.4833,38.2 90.65,37.6C89.8167,37 88.85,36.5667 87.75,36.3C86.65,36.0333 85.5,35.9 84.3,35.9L71.6,35.9L71.6,51.55L84.3,51.55Z" style="fill:white;fill-rule:nonzero;"/>
            <rect x="100.9" y="34" width="2.2" height="35.7" style="fill:white;fill-rule:nonzero;"/>
            <path d="M132.7,44.2C132.633,42.6667 132.308,41.3333 131.725,40.2C131.142,39.0667 130.35,38.1167 129.35,37.35C128.35,36.5833 127.158,36.0083 125.775,35.625C124.392,35.2417 122.883,35.05 121.25,35.05C120.25,35.05 119.175,35.1667 118.025,35.4C116.875,35.6333 115.808,36.0417 114.825,36.625C113.842,37.2083 113.033,37.9917 112.4,38.975C111.767,39.9583 111.45,41.1833 111.45,42.65C111.45,44.0833 111.8,45.25 112.5,46.15C113.2,47.05 114.117,47.775 115.25,48.325C116.383,48.875 117.683,49.3167 119.15,49.65C120.617,49.9833 122.1,50.3 123.6,50.6C125.133,50.9 126.625,51.2583 128.075,51.675C129.525,52.0917 130.825,52.6583 131.975,53.375C133.125,54.0917 134.05,55.025 134.75,56.175C135.45,57.325 135.8,58.7667 135.8,60.5C135.8,62.3667 135.4,63.9333 134.6,65.2C133.8,66.4667 132.792,67.5 131.575,68.3C130.358,69.1 129.008,69.675 127.525,70.025C126.042,70.375 124.617,70.55 123.25,70.55C121.15,70.55 119.183,70.325 117.35,69.875C115.517,69.425 113.917,68.6917 112.55,67.675C111.183,66.6583 110.108,65.35 109.325,63.75C108.542,62.15 108.167,60.2 108.2,57.9L110.4,57.9C110.3,59.8667 110.583,61.525 111.25,62.875C111.917,64.225 112.842,65.3333 114.025,66.2C115.208,67.0667 116.6,67.6917 118.2,68.075C119.8,68.4583 121.483,68.65 123.25,68.65C124.317,68.65 125.458,68.5167 126.675,68.25C127.892,67.9833 129.008,67.5333 130.025,66.9C131.042,66.2667 131.892,65.4333 132.575,64.4C133.258,63.3667 133.6,62.0667 133.6,60.5C133.6,59 133.25,57.775 132.55,56.825C131.85,55.875 130.925,55.1083 129.775,54.525C128.625,53.9417 127.325,53.475 125.875,53.125C124.425,52.775 122.933,52.45 121.4,52.15C119.9,51.85 118.417,51.5 116.95,51.1C115.483,50.7 114.183,50.1583 113.05,49.475C111.917,48.7917 111,47.9083 110.3,46.825C109.6,45.7417 109.25,44.35 109.25,42.65C109.25,40.95 109.608,39.4917 110.325,38.275C111.042,37.0583 111.975,36.075 113.125,35.325C114.275,34.575 115.567,34.025 117,33.675C118.433,33.325 119.85,33.15 121.25,33.15C123.117,33.15 124.858,33.3583 126.475,33.775C128.092,34.1917 129.508,34.8417 130.725,35.725C131.942,36.6083 132.917,37.75 133.65,39.15C134.383,40.55 134.8,42.2333 134.9,44.2L132.7,44.2Z" style="fill:white;fill-rule:nonzero;"/>
            <path d="M135.95,35.9L135.95,34L163.3,34L163.3,35.9L150.7,35.9L150.7,69.7L148.5,69.7L148.5,35.9L135.95,35.9Z" style="fill:white;fill-rule:nonzero;"/>
            <rect x="165.75" y="34" width="2.2" height="35.7" style="fill:white;fill-rule:nonzero;"/>
            <path d="M174.25,34L177,34L199.55,66.75L199.65,66.75L199.65,34L201.85,34L201.85,69.7L199.25,69.7L176.55,36.7L176.45,36.7L176.45,69.7L174.25,69.7L174.25,34Z" style="fill:white;fill-rule:nonzero;"/>
            <path d="M208.15,34L232.15,34L232.15,35.9L210.35,35.9L210.35,50.2L230.85,50.2L230.85,52.1L210.35,52.1L210.35,67.8L232.4,67.8L232.4,69.7L208.15,69.7L208.15,34Z" style="fill:white;fill-rule:nonzero;"/>
        </g>
    </g>
</svg>
