<?xml version="1.0" encoding="UTF-8" standalone="no"?>
<svg width="512px" height="512px" viewBox="0 0 512 512" version="1.1" xmlns="http://www.w3.org/2000/svg" xmlns:xlink="http://www.w3.org/1999/xlink" xmlns:sketch="http://www.bohemiancoding.com/sketch/ns">
    <!-- Generator: Sketch 3.3.2 (12043) - http://www.bohemiancoding.com/sketch -->
    <title>512</title>
    <desc>Created with Sketch.</desc>
    <defs></defs>
    <g id="Page-1" stroke="none" stroke-width="1" fill="none" fill-rule="evenodd" sketch:type="MSPage">
        <g id="512" sketch:type="MSArtboardGroup" fill="#22ACC0">
            <path d="M121.350384,356.042163 L212.940475,356.042163 L212.940475,240.464191 L167.145429,240.464191 C166.41852,231.741282 166.963694,222.10988 168.780967,211.569698 C170.598239,201.029516 173.687557,190.852941 178.049011,181.039668 C182.410466,171.226395 187.862203,162.503616 194.404385,154.871071 C200.946567,147.238525 208.942447,141.605064 218.392266,137.970518 L218.392266,91.0851146 C202.400265,95.4465693 188.22575,102.715551 175.868295,112.892279 C163.51084,123.069007 153.334265,134.881103 145.338265,148.328921 C137.342265,161.77674 131.345354,176.314704 127.347354,191.94325 C123.349354,207.571796 121.350384,223.381832 121.350384,239.373833 L121.350384,356.042163 Z M289.26555,356.042163 L380.855641,356.042163 L380.855641,240.464191 L335.060596,240.464191 C334.333686,231.741282 334.87886,222.10988 336.696133,211.569698 C338.513406,201.029516 341.602723,190.852941 345.964178,181.039668 C350.325632,171.226395 355.777369,162.503616 362.319551,154.871071 C368.861733,147.238525 376.857613,141.605064 386.307432,137.970518 L386.307432,91.0851146 C370.315431,95.4465693 356.140916,102.715551 343.783461,112.892279 C331.426006,123.069007 321.249431,134.881103 313.253431,148.328921 C305.257431,161.77674 299.260521,176.314704 295.26252,191.94325 C291.26452,207.571796 289.26555,223.381832 289.26555,239.373833 L289.26555,356.042163 Z" id="“-copy" sketch:type="MSShapeGroup"></path>
        </g>
    </g>
</svg>