<?xml version="1.0" standalone="no"?>
<!DOCTYPE svg PUBLIC "-//W3C//DTD SVG 1.1//EN" "http://www.w3.org/Graphics/SVG/1.1/DTD/svg11.dtd">
<svg width="100%" height="100%" viewBox="0 0 50 50" version="1.1" xmlns="http://www.w3.org/2000/svg" xmlns:xlink="http://www.w3.org/1999/xlink" xml:space="preserve" style="fill-rule:evenodd;clip-rule:evenodd;stroke-linejoin:round;stroke-miterlimit:1.41421;">
    <path id="linkedin_F" d="M25,50C38.8071,50 50,38.8071 50,25C50,11.1929 38.8071,0 25,0C11.1929,0 0,11.1929 0,25C0,38.8071 11.1929,50 25,50ZM17.8567,37L17.8567,18.1923L12.1954,18.1923L12.1954,37L17.8567,37ZM15.0261,10C13.201,10 12.0092,11.2692 12.0464,12.9615C12.0092,14.5769 13.201,15.8846 14.9888,15.8846C16.8511,15.8846 18.0429,14.5769 18.0429,12.9615C18.0057,11.2692 16.8511,10 15.0261,10ZM22.4006,37L28.0619,37L28.0619,26.1538C28.0619,25.6154 28.1364,25.0385 28.2854,24.6923C28.6578,23.6154 29.589,22.5 31.1533,22.5C33.2018,22.5 34.0212,24.1538 34.0212,26.5769L34.0212,37L39.6824,37L39.6824,25.8462C39.6824,20.3077 36.889,17.7692 33.1645,17.7692C30.1477,17.7692 28.2854,19.5769 27.5405,20.7692L27.4287,20.7692L27.168,18.1923L22.2516,18.1923C22.3261,19.8462 22.4006,21.8462 22.4006,24.1923L22.4006,37Z" style="fill:rgb(45,172,191);"/>
</svg>
