<?xml version="1.0" standalone="no"?>
<!DOCTYPE svg PUBLIC "-//W3C//DTD SVG 1.1//EN" "http://www.w3.org/Graphics/SVG/1.1/DTD/svg11.dtd">
<svg width="100%" height="100%" viewBox="0 0 3072 3072" version="1.1" xmlns="http://www.w3.org/2000/svg" xmlns:xlink="http://www.w3.org/1999/xlink" xml:space="preserve" style="fill-rule:evenodd;clip-rule:evenodd;stroke-linejoin:round;stroke-miterlimit:1.41421;">
    <g>
        <g id="pristinepicturesCurves">
            <g>
                <path d="M375.156,1454.94C388.307,1454.94 400.287,1453.64 411.094,1451.03C421.901,1448.43 431.699,1444.91 440.488,1440.48C449.277,1436.06 457.22,1430.88 464.317,1424.96C471.413,1419.03 477.826,1412.69 483.555,1405.91L485.703,1450.64C481.537,1455.72 476.491,1460.63 470.567,1465.39C464.642,1470.14 458.164,1474.31 451.133,1477.89C444.102,1481.47 436.712,1484.33 428.965,1486.48C421.218,1488.63 413.568,1489.7 406.016,1489.7C405.104,1489.7 403.965,1489.57 402.598,1489.31C401.231,1489.05 398.854,1488.6 395.469,1487.95C392.083,1487.29 387.233,1486.42 380.918,1485.31C374.603,1484.2 366.042,1482.87 355.235,1481.3L355.235,1484.82C355.235,1508.52 353.249,1530.04 349.277,1549.37C345.306,1568.71 340,1585.21 333.36,1598.88C326.719,1612.55 319.102,1623.1 310.508,1630.52C301.914,1637.95 292.995,1641.66 283.75,1641.66C276.328,1641.66 270.143,1639.83 265.195,1636.19C260.248,1632.54 256.309,1627.63 253.379,1621.44C250.449,1615.26 248.366,1608.03 247.129,1599.76C245.892,1591.49 245.274,1582.74 245.274,1573.49C245.274,1568.15 246.12,1562.13 247.813,1555.43C249.505,1548.72 251.784,1541.69 254.649,1534.33C257.513,1526.98 260.736,1519.49 264.317,1511.87C267.897,1504.25 271.576,1496.86 275.352,1489.7C284.206,1473.04 294.297,1455.85 305.625,1438.14C307.057,1427.98 308.522,1417.57 310.02,1406.89C311.517,1396.21 313.405,1385.86 315.684,1375.84C317.962,1365.81 321.478,1355.3 326.231,1344.29C330.983,1333.29 336.061,1324.47 341.465,1317.83C346.869,1311.19 353.347,1305.91 360.899,1302.01C368.451,1298.1 377.565,1296.15 388.242,1296.15C396.185,1296.15 403.607,1297.22 410.508,1299.37C417.409,1301.52 423.464,1305 428.672,1309.82C433.88,1314.64 437.982,1320.86 440.977,1328.47C443.972,1336.09 445.469,1345.43 445.469,1356.5C445.469,1368.74 444.167,1378.31 441.563,1385.21C437.656,1395.5 432.611,1404.42 426.426,1411.97C420.241,1419.52 412.884,1426.58 404.356,1433.16C395.827,1439.74 385.703,1445.63 373.985,1450.84L375.156,1454.94ZM350.547,1435.21C358.36,1431.3 365.13,1426.94 370.86,1422.13C376.328,1417.31 381.146,1412.16 385.313,1406.7C387.005,1406.44 391.042,1400.45 397.422,1388.73C401.719,1378.7 404.453,1371.02 405.625,1365.68C406.276,1362.82 406.699,1359.46 406.895,1355.62C407.09,1351.78 406.699,1348.17 405.723,1344.78C404.746,1341.4 403.054,1338.5 400.645,1336.09C398.236,1333.68 394.883,1332.48 390.586,1332.48C385.768,1332.48 381.537,1333.81 377.891,1336.48C374.245,1339.15 371.087,1342.76 368.418,1347.32C365.749,1351.88 363.535,1357.28 361.777,1363.53C360.02,1369.78 357.936,1377.5 355.527,1386.68C353.119,1395.86 351.686,1404.32 351.231,1412.07C350.775,1419.81 350.547,1427.53 350.547,1435.21ZM282.578,1575.84C282.578,1576.88 282.806,1578.57 283.262,1580.91C283.718,1583.26 284.466,1585.6 285.508,1587.95C286.55,1590.29 287.917,1592.37 289.61,1594.2C291.302,1596.02 293.386,1596.93 295.86,1596.93C298.073,1596.93 299.896,1595.73 301.328,1593.32C302.761,1590.91 303.932,1587.69 304.844,1583.65C305.755,1579.61 306.406,1575.05 306.797,1569.98C307.188,1564.9 307.513,1559.69 307.774,1554.35C308.034,1549.01 308.197,1543.8 308.262,1538.73C308.327,1533.65 308.49,1529.09 308.75,1525.05C309.141,1518.02 309.434,1512.07 309.629,1507.18C309.824,1502.3 309.987,1498.23 310.117,1494.98C310.248,1491.33 310.378,1488.27 310.508,1485.8C308.034,1490.09 305.625,1495.07 303.281,1500.74C300.938,1506.4 298.724,1512.29 296.641,1518.41C294.557,1524.53 292.669,1530.65 290.977,1536.77C289.284,1542.89 287.819,1548.59 286.582,1553.86C285.345,1559.14 284.369,1563.69 283.652,1567.54C282.936,1571.38 282.578,1574.14 282.578,1575.84Z" style="fill:none;stroke-width:12px;stroke:rgb(235,235,235);"/>
                <path d="M463.828,1448.88C463.828,1443.15 464.154,1436.48 464.805,1428.86C465.456,1421.25 466.335,1413.21 467.442,1404.74C468.548,1396.28 469.85,1387.65 471.348,1378.86C472.845,1370.07 474.766,1360.7 477.11,1350.74C479.453,1340.78 481.472,1332.48 483.164,1325.84C484.857,1319.2 486.55,1313.73 488.242,1309.43C489.284,1306.57 490.326,1304.29 491.367,1302.59C492.409,1300.9 493.613,1299.57 494.981,1298.59C496.348,1297.61 498.041,1296.96 500.059,1296.64C502.077,1296.31 504.583,1296.15 507.578,1296.15C510.964,1296.15 513.6,1296.31 515.488,1296.64C517.376,1296.96 518.776,1297.74 519.688,1298.98C520.599,1300.22 521.152,1302.01 521.348,1304.35C521.543,1306.7 521.641,1309.89 521.641,1313.92C521.641,1318.74 521.315,1325.58 520.664,1334.43C520.013,1343.28 519.818,1351.03 520.078,1357.67L522.227,1357.67C524.831,1352.46 528.086,1345.63 531.992,1337.16C535.899,1328.7 540,1321.67 544.297,1316.07C548.594,1310.47 553.477,1305.75 558.945,1301.91C564.414,1298.07 570.729,1296.15 577.891,1296.15C580.365,1296.15 582.774,1296.57 585.117,1297.42C587.461,1298.26 589.512,1299.47 591.27,1301.03C593.027,1302.59 594.427,1304.51 595.469,1306.79C596.511,1309.07 597.031,1311.64 597.031,1314.51C597.031,1316.72 596.706,1319.81 596.055,1323.79C595.404,1327.76 594.362,1332.93 592.93,1339.31C591.498,1345.69 590.456,1350.93 589.805,1355.04C589.154,1359.14 588.828,1362.55 588.828,1365.29C588.828,1369.98 589.284,1373.88 590.195,1377.01C591.107,1380.13 592.311,1382.64 593.809,1384.53C595.306,1386.42 596.999,1387.75 598.887,1388.53C600.775,1389.31 602.761,1389.7 604.844,1389.7C610.703,1389.7 616.758,1388.4 623.008,1385.8C629.258,1383.19 634.987,1380.26 640.195,1377.01C646.315,1373.23 652.305,1368.94 658.164,1364.12L655.235,1409.82C651.849,1412.03 648.008,1414.51 643.711,1417.24C639.414,1419.98 634.824,1422.55 629.942,1424.96C625.059,1427.37 619.981,1429.38 614.707,1431.01C609.434,1432.64 604.063,1433.45 598.594,1433.45C588.828,1433.45 580.951,1431.47 574.961,1427.5C568.972,1423.52 564.219,1418.32 560.703,1411.87C557.188,1405.43 554.583,1398.2 552.891,1390.19C551.198,1382.18 549.831,1374.08 548.789,1365.88L545.664,1365.88L510.703,1463.34C508.88,1468.41 507.155,1472.61 505.527,1475.93C503.9,1479.25 502.24,1481.96 500.547,1484.04C498.854,1486.12 497.031,1487.59 495.078,1488.43C493.125,1489.28 490.977,1489.7 488.633,1489.7C483.294,1489.7 478.998,1488.56 475.742,1486.29C472.487,1484.01 469.981,1480.95 468.223,1477.11C466.465,1473.26 465.293,1468.9 464.707,1464.02C464.121,1459.14 463.828,1454.09 463.828,1448.88Z" style="fill:none;stroke-width:12px;stroke:rgb(235,235,235);"/>
                <path d="M750.938,1448.1C746.25,1452.4 740.423,1456.99 733.457,1461.87C726.491,1466.75 718.972,1471.25 710.899,1475.35C702.826,1479.45 694.59,1482.87 686.192,1485.6C677.793,1488.34 669.818,1489.7 662.266,1489.7C655.495,1489.7 649.798,1488.76 645.176,1486.87C640.554,1484.98 636.81,1482.35 633.945,1478.96C631.081,1475.58 629.03,1471.44 627.793,1466.56C626.556,1461.68 625.938,1456.3 625.938,1450.45C625.938,1442.24 626.849,1432.67 628.672,1421.73C632.318,1400.64 634.662,1388.79 635.703,1386.19C637.526,1380.46 641.172,1367.76 646.641,1348.1C651.068,1331.7 653.802,1321.02 654.844,1316.07C655.495,1312.82 657.318,1309.89 660.313,1307.28C663.047,1304.94 666.139,1303.02 669.59,1301.52C673.041,1300.02 676.621,1298.92 680.332,1298.2C684.043,1297.48 687.396,1297.13 690.391,1297.13C695.86,1297.13 699.57,1298.13 701.524,1300.15C703.477,1302.17 704.453,1304.87 704.453,1308.26C704.453,1311.12 703.802,1315.26 702.5,1320.66C701.198,1326.06 699.57,1332.18 697.617,1339.02C695.664,1345.86 693.19,1354.06 690.195,1363.63C687.201,1373.2 684.727,1381.92 682.774,1389.8C680.82,1397.68 679.193,1405.36 677.891,1412.85C676.589,1420.33 675.938,1427.07 675.938,1433.06C675.938,1438.92 676.589,1443.58 677.891,1447.03C679.193,1450.48 681.862,1452.2 685.899,1452.2C690.586,1452.2 695.794,1450.58 701.524,1447.32C707.253,1444.07 713.047,1440.13 718.906,1435.5C724.766,1430.88 730.495,1426.1 736.094,1421.15C741.693,1416.2 746.641,1411.97 750.938,1408.45L750.938,1448.1ZM663.633,1243.41C663.633,1240.42 664.284,1237.03 665.586,1233.26C666.888,1229.48 669.004,1225.93 671.934,1222.61C674.863,1219.29 678.77,1216.49 683.652,1214.22C688.535,1211.94 694.623,1210.8 701.914,1210.8C706.472,1210.8 710.768,1211.32 714.805,1212.36C718.841,1213.4 722.357,1215 725.352,1217.14C728.347,1219.29 730.723,1222.13 732.481,1225.64C734.238,1229.16 735.117,1233.32 735.117,1238.14C735.117,1242.57 734.401,1246.86 732.969,1251.03C731.537,1255.2 729.258,1258.91 726.133,1262.16C723.008,1265.42 719.069,1268.06 714.317,1270.07C709.564,1272.09 703.867,1273.1 697.227,1273.1C685.768,1273.1 677.305,1270.4 671.836,1265C666.367,1259.59 663.633,1252.4 663.633,1243.41Z" style="fill:none;stroke-width:12px;stroke:rgb(235,235,235);"/>
                <path d="M731.016,1414.7C738.307,1408.45 744.232,1403.25 748.789,1399.08C753.347,1394.91 757.904,1390.06 762.461,1384.53C767.018,1378.99 770.632,1374.47 773.301,1370.95C775.97,1367.44 779.128,1363.27 782.774,1358.45C786.419,1353.64 790.847,1347.74 796.055,1340.78C801.263,1333.81 808.034,1325.12 816.367,1314.7C818.06,1312.36 819.948,1310.08 822.031,1307.87C824.115,1305.65 826.426,1303.67 828.965,1301.91C831.504,1300.15 834.304,1298.72 837.363,1297.61C840.423,1296.51 843.841,1295.95 847.617,1295.95C853.867,1295.95 858.685,1296.64 862.07,1298C865.456,1299.37 867.93,1301.03 869.492,1302.98C871.055,1304.94 871.966,1306.99 872.227,1309.14C872.487,1311.29 872.617,1313.14 872.617,1314.7C872.617,1317.83 871.38,1321.28 868.906,1325.05C866.432,1328.83 863.698,1332.48 860.703,1335.99C857.708,1339.51 854.876,1342.73 852.207,1345.66C849.538,1348.59 848.008,1350.77 847.617,1352.2C847.617,1356.24 847.91,1359.92 848.496,1363.24C849.082,1366.56 849.863,1369.81 850.84,1373C851.817,1376.19 852.826,1379.58 853.867,1383.16C854.909,1386.74 855.918,1390.88 856.895,1395.56C857.871,1400.25 858.001,1406.7 857.285,1414.9C856.569,1423.1 856.211,1431.37 856.211,1439.7C860.899,1436.58 865.944,1433.75 871.348,1431.21C876.751,1428.67 882.383,1426.03 888.242,1423.3C894.102,1420.56 900.124,1417.54 906.309,1414.22C912.494,1410.89 918.711,1406.89 924.961,1402.2L925.156,1445.95C917.083,1452.2 907.741,1458.06 897.129,1463.53C886.517,1469 875.384,1473.82 863.731,1477.98C852.077,1482.15 840.293,1485.44 828.379,1487.85C816.465,1490.26 805.169,1491.46 794.492,1491.46C786.81,1491.46 779.649,1490.75 773.008,1489.31C766.367,1487.88 760.541,1485.63 755.527,1482.57C750.514,1479.51 746.445,1475.51 743.32,1470.56C740.195,1465.61 738.307,1459.63 737.656,1452.59C735.833,1452.98 734.043,1453.25 732.285,1453.38C730.527,1453.51 728.802,1453.57 727.11,1453.57C725.026,1453.57 723.073,1453.51 721.25,1453.38C719.427,1453.25 717.865,1452.76 716.563,1451.91C715.261,1451.06 714.219,1449.7 713.438,1447.81C712.656,1445.92 712.266,1443.22 712.266,1439.7C712.266,1436.58 713.047,1433.68 714.61,1431.01C716.172,1428.34 717.995,1425.97 720.078,1423.88C722.162,1421.8 724.245,1419.98 726.328,1418.41C728.412,1416.85 729.974,1415.61 731.016,1414.7ZM756.016,1439.7C757.578,1439.7 759.304,1440.68 761.192,1442.63C763.08,1444.59 765.261,1446.73 767.735,1449.08C770.208,1451.42 773.073,1453.57 776.328,1455.52C779.583,1457.48 783.294,1458.45 787.461,1458.45C792.539,1458.45 796.738,1457.61 800.059,1455.91C803.379,1454.22 806.016,1451.98 807.969,1449.18C809.922,1446.38 811.289,1443.12 812.07,1439.41C812.852,1435.7 813.242,1431.83 813.242,1427.79C813.242,1424.27 813.014,1420.69 812.559,1417.05C812.103,1413.4 812.168,1408.88 812.754,1403.47C813.34,1398.07 813.21,1393.9 812.363,1390.97C811.517,1388.04 810.768,1385.54 810.117,1383.45L756.016,1439.7Z" style="fill:none;stroke-width:12px;stroke:rgb(235,235,235);"/>
                <path d="M1068.13,1445.95C1055.63,1453.25 1044.49,1459.63 1034.73,1465.09C1024.96,1470.56 1016.27,1475.12 1008.65,1478.77C1001.04,1482.41 994.264,1485.15 988.34,1486.97C982.416,1488.79 977.044,1489.7 972.227,1489.7C962.331,1489.7 953.607,1486.71 946.055,1480.72C938.503,1474.73 932.188,1466.1 927.11,1454.84C922.031,1443.58 918.223,1429.94 915.684,1413.92C913.145,1397.91 911.875,1379.87 911.875,1359.82C911.875,1352.01 912.201,1343.67 912.852,1334.82C913.503,1325.97 914.414,1317.18 915.586,1308.45C911.68,1307.93 908.652,1307.44 906.504,1306.99C904.356,1306.53 902.077,1306.08 899.668,1305.62C897.259,1305.17 894.199,1304.68 890.488,1304.16C886.777,1303.64 881.406,1302.98 874.375,1302.2C871.25,1301.81 868.841,1301.06 867.149,1299.96C865.456,1298.85 864.219,1297.55 863.438,1296.05C862.656,1294.55 862.201,1292.99 862.07,1291.36C861.94,1289.74 861.875,1288.34 861.875,1287.16C861.875,1284.56 863.145,1282.57 865.684,1281.21C868.223,1279.84 871.478,1278.83 875.449,1278.18C879.421,1277.53 883.783,1277.17 888.535,1277.11C893.288,1277.04 897.845,1277.07 902.207,1277.2C906.569,1277.33 910.475,1277.43 913.926,1277.5C917.376,1277.56 919.753,1277.46 921.055,1277.2C924.57,1259.63 929.03,1242.6 934.434,1226.13C939.837,1209.66 945.892,1195.01 952.598,1182.18C959.304,1169.36 966.628,1159.07 974.57,1151.32C982.513,1143.58 990.847,1139.7 999.57,1139.7C1005.17,1139.7 1010.28,1141.27 1014.9,1144.39C1019.52,1147.52 1023.46,1151.68 1026.72,1156.89C1029.97,1162.1 1032.48,1168.19 1034.24,1175.15C1036,1182.12 1036.88,1189.38 1036.88,1196.93C1036.88,1203.31 1035.96,1210.05 1034.14,1217.14C1032.32,1224.24 1029.84,1231.47 1026.72,1238.82C1023.59,1246.18 1019.92,1253.64 1015.68,1261.19C1011.45,1268.74 1006.99,1276.23 1002.3,1283.65C1003.48,1283.78 1005.43,1283.84 1008.16,1283.84C1010.9,1283.84 1014.06,1283.94 1017.64,1284.14C1021.22,1284.33 1025.09,1284.53 1029.26,1284.72C1033.42,1284.92 1037.46,1285.08 1041.37,1285.21C1045.27,1285.34 1048.92,1285.47 1052.3,1285.6C1055.69,1285.73 1058.49,1285.86 1060.7,1285.99C1063.31,1286.12 1065.2,1287.42 1066.37,1289.9C1067.54,1292.37 1068.13,1295.5 1068.13,1299.27C1068.13,1303.83 1066.82,1307.54 1064.22,1310.41C1061.61,1313.27 1058.75,1314.7 1055.63,1314.7L980.625,1314.7C976.849,1319.91 973.041,1325.02 969.199,1330.04C965.358,1335.05 961.81,1339.57 958.555,1343.61C958.034,1351.68 957.578,1359.63 957.188,1367.44C957.057,1370.82 956.927,1374.31 956.797,1377.89C956.667,1381.47 956.537,1385.02 956.406,1388.53C956.276,1392.05 956.179,1395.43 956.113,1398.69C956.048,1401.94 956.016,1404.94 956.016,1407.67C956.016,1414.7 956.667,1420.63 957.969,1425.45C959.271,1430.26 961.159,1434.2 963.633,1437.26C966.107,1440.32 969.134,1442.54 972.715,1443.9C976.296,1445.27 980.3,1445.95 984.727,1445.95C987.461,1445.95 990.879,1445.3 994.981,1444C999.082,1442.7 1003.57,1440.91 1008.46,1438.63C1013.34,1436.35 1018.48,1433.65 1023.89,1430.52C1029.29,1427.4 1034.63,1423.98 1039.9,1420.27C1045.18,1416.56 1050.22,1412.65 1055.04,1408.55C1059.86,1404.45 1064.22,1400.25 1068.13,1395.95L1068.13,1445.95ZM1005.63,1198.69C1005.63,1197.26 1005.53,1195.66 1005.33,1193.9C1005.14,1192.14 1004.71,1190.48 1004.06,1188.92C1003.41,1187.36 1002.4,1186.06 1001.04,1185.02C999.668,1183.97 997.748,1183.45 995.274,1183.45C991.888,1183.45 988.47,1186.45 985.02,1192.44C981.569,1198.43 978.249,1206.08 975.059,1215.39C971.869,1224.7 968.874,1234.95 966.074,1246.15C963.275,1257.35 960.703,1268.22 958.36,1278.77C960.313,1279.03 962.266,1279.25 964.219,1279.45C966.172,1279.64 968.19,1279.87 970.274,1280.13C974.18,1273.49 978.249,1266.3 982.481,1258.55C986.712,1250.8 990.521,1243.19 993.906,1235.7C997.292,1228.21 1000.09,1221.21 1002.3,1214.7C1004.52,1208.19 1005.63,1202.85 1005.63,1198.69Z" style="fill:none;stroke-width:12px;stroke:rgb(235,235,235);"/>
                <path d="M1171.64,1448.1C1166.95,1452.4 1161.13,1456.99 1154.16,1461.87C1147.19,1466.75 1139.67,1471.25 1131.6,1475.35C1123.53,1479.45 1115.29,1482.87 1106.89,1485.6C1098.5,1488.34 1090.52,1489.7 1082.97,1489.7C1076.2,1489.7 1070.5,1488.76 1065.88,1486.87C1061.26,1484.98 1057.51,1482.35 1054.65,1478.96C1051.78,1475.58 1049.73,1471.44 1048.5,1466.56C1047.26,1461.68 1046.64,1456.3 1046.64,1450.45C1046.64,1442.24 1047.55,1432.67 1049.38,1421.73C1053.02,1400.64 1055.36,1388.79 1056.41,1386.19C1058.23,1380.46 1061.88,1367.76 1067.34,1348.1C1071.77,1331.7 1074.51,1321.02 1075.55,1316.07C1076.2,1312.82 1078.02,1309.89 1081.02,1307.28C1083.75,1304.94 1086.84,1303.02 1090.29,1301.52C1093.74,1300.02 1097.32,1298.92 1101.04,1298.2C1104.75,1297.48 1108.1,1297.13 1111.09,1297.13C1116.56,1297.13 1120.27,1298.13 1122.23,1300.15C1124.18,1302.17 1125.16,1304.87 1125.16,1308.26C1125.16,1311.12 1124.51,1315.26 1123.2,1320.66C1121.9,1326.06 1120.27,1332.18 1118.32,1339.02C1116.37,1345.86 1113.89,1354.06 1110.9,1363.63C1107.9,1373.2 1105.43,1381.92 1103.48,1389.8C1101.52,1397.68 1099.9,1405.36 1098.59,1412.85C1097.29,1420.33 1096.64,1427.07 1096.64,1433.06C1096.64,1438.92 1097.29,1443.58 1098.59,1447.03C1099.9,1450.48 1102.57,1452.2 1106.6,1452.2C1111.29,1452.2 1116.5,1450.58 1122.23,1447.32C1127.96,1444.07 1133.75,1440.13 1139.61,1435.5C1145.47,1430.88 1151.2,1426.1 1156.8,1421.15C1162.4,1416.2 1167.34,1411.97 1171.64,1408.45L1171.64,1448.1ZM1084.34,1243.41C1084.34,1240.42 1084.99,1237.03 1086.29,1233.26C1087.59,1229.48 1089.71,1225.93 1092.64,1222.61C1095.57,1219.29 1099.47,1216.49 1104.36,1214.22C1109.24,1211.94 1115.33,1210.8 1122.62,1210.8C1127.17,1210.8 1131.47,1211.32 1135.51,1212.36C1139.54,1213.4 1143.06,1215 1146.05,1217.14C1149.05,1219.29 1151.43,1222.13 1153.18,1225.64C1154.94,1229.16 1155.82,1233.32 1155.82,1238.14C1155.82,1242.57 1155.1,1246.86 1153.67,1251.03C1152.24,1255.2 1149.96,1258.91 1146.84,1262.16C1143.71,1265.42 1139.77,1268.06 1135.02,1270.07C1130.27,1272.09 1124.57,1273.1 1117.93,1273.1C1106.47,1273.1 1098.01,1270.4 1092.54,1265C1087.07,1259.59 1084.34,1252.4 1084.34,1243.41Z" style="fill:none;stroke-width:12px;stroke:rgb(235,235,235);"/>
                <path d="M1157.97,1448.88C1157.97,1440.29 1158.49,1430.36 1159.53,1419.1C1160.57,1407.83 1161.88,1395.47 1163.44,1381.99C1165,1368.51 1166.76,1356.37 1168.71,1345.56C1170.66,1334.76 1172.55,1325.51 1174.38,1317.83C1175.81,1311.84 1178.57,1306.83 1182.68,1302.79C1186.78,1298.75 1192.34,1296.73 1199.38,1296.73C1206.41,1296.73 1211.29,1298.88 1214.02,1303.18C1216.76,1307.48 1218.13,1313.21 1218.13,1320.37C1218.13,1322.32 1217.93,1324.96 1217.54,1328.28C1217.15,1331.6 1216.66,1335.24 1216.07,1339.22C1215.49,1343.19 1214.87,1347.29 1214.22,1351.52C1213.57,1355.75 1212.95,1360.57 1212.36,1365.97C1211.78,1371.38 1211.29,1375.41 1210.9,1378.08C1210.51,1380.75 1210.31,1382.54 1210.31,1383.45L1214.22,1383.45C1215,1382.02 1216.24,1379.71 1217.93,1376.52C1219.62,1373.33 1221.58,1368.74 1223.79,1362.75C1226,1356.76 1228.38,1351.45 1230.92,1346.83C1233.46,1342.21 1235.83,1337.78 1238.05,1333.55C1240.26,1329.32 1242.28,1325.58 1244.1,1322.32C1245.92,1319.07 1247.29,1316.66 1248.2,1315.09C1252.37,1308.06 1257.12,1303.25 1262.46,1300.64C1267.8,1298.04 1273.72,1296.73 1280.23,1296.73C1286.74,1296.73 1291.92,1299.47 1295.76,1304.94C1299.6,1310.41 1301.52,1317.96 1301.52,1327.59C1301.52,1329.03 1301.23,1331.44 1300.64,1334.82C1300.06,1338.21 1299.31,1342.24 1298.4,1346.93C1297.49,1351.62 1296.48,1357.67 1295.37,1365.09C1294.26,1372.52 1293.26,1379.16 1292.34,1385.02C1291.43,1390.88 1290.68,1396.67 1290.1,1402.4C1289.51,1408.13 1289.22,1413.4 1289.22,1418.22C1289.22,1426.29 1290.23,1432.93 1292.25,1438.14C1294.26,1443.35 1297.42,1445.95 1301.72,1445.95C1303.28,1445.95 1305.49,1445.37 1308.36,1444.2C1312.66,1442.63 1315.39,1441.27 1316.56,1440.09C1322.29,1435.67 1325.29,1433.52 1325.55,1433.65C1325.94,1433.78 1330.3,1431.17 1338.63,1425.84C1349.05,1419.2 1361.48,1411.06 1375.94,1401.42L1375.74,1445.17L1365.98,1452.59C1365.2,1453.25 1359.08,1456.63 1347.62,1462.75C1331.08,1471.6 1320.73,1476.94 1316.56,1478.77C1306.41,1483.32 1300.09,1485.93 1297.62,1486.58C1291.11,1488.66 1284.27,1489.7 1277.11,1489.7C1269.95,1489.7 1263.93,1484.53 1259.04,1474.18C1254.16,1463.82 1251.72,1448.69 1251.72,1428.77C1251.72,1420.95 1252.24,1412.52 1253.28,1403.47C1254.32,1394.42 1255.63,1384.69 1257.19,1374.27L1254.06,1374.27L1202.89,1475.84C1200.16,1481.3 1197.23,1484.95 1194.1,1486.77C1190.85,1488.73 1187.07,1489.7 1182.77,1489.7C1177.44,1489.7 1173.14,1488.56 1169.88,1486.29C1166.63,1484.01 1164.12,1480.95 1162.36,1477.11C1160.61,1473.26 1159.43,1468.9 1158.85,1464.02C1158.26,1459.14 1157.97,1454.09 1157.97,1448.88Z" style="fill:none;stroke-width:12px;stroke:rgb(235,235,235);"/>
                <path d="M1413.44,1489.7C1401.2,1489.7 1390.49,1487.49 1381.31,1483.06C1372.13,1478.64 1364.48,1472.68 1358.36,1465.19C1352.24,1457.7 1347.65,1449.05 1344.59,1439.22C1341.53,1429.38 1340,1419.07 1340,1408.26C1340,1400.97 1341.37,1392.27 1344.1,1382.18C1346.84,1372.09 1349.67,1363.14 1352.6,1355.33C1355.53,1347.52 1359.21,1340.06 1363.63,1332.97C1368.06,1325.87 1373.24,1319.62 1379.16,1314.22C1385.08,1308.81 1391.73,1304.51 1399.08,1301.32C1406.44,1298.13 1414.61,1296.54 1423.59,1296.54C1430.89,1296.54 1437.66,1297.71 1443.91,1300.05C1450.16,1302.4 1455.59,1305.69 1460.21,1309.92C1464.84,1314.15 1468.45,1319.26 1471.05,1325.25C1473.66,1331.24 1474.96,1337.95 1474.96,1345.37C1474.96,1353.44 1472.32,1362.49 1467.05,1372.52C1461.78,1382.54 1455.63,1391.14 1448.59,1398.3C1441.56,1405.46 1433.2,1411.84 1423.5,1417.44C1413.8,1423.04 1403.28,1427.4 1391.95,1430.52C1393.91,1434.04 1395.83,1436.97 1397.71,1439.31C1399.6,1441.66 1401.52,1443.48 1403.48,1444.78C1405.43,1446.08 1407.48,1447 1409.63,1447.52C1411.78,1448.04 1414.09,1448.3 1416.56,1448.3C1424.38,1448.3 1432.61,1446.73 1441.27,1443.61C1449.93,1440.48 1458.36,1436.58 1466.56,1431.89C1474.77,1427.2 1482.51,1422.09 1489.8,1416.56C1497.1,1411.02 1503.28,1405.78 1508.36,1400.84L1533.55,1427.01C1522.1,1438.86 1509.92,1449.34 1497.03,1458.45C1491.43,1462.36 1485.41,1466.2 1478.96,1469.98C1472.52,1473.75 1465.75,1477.11 1458.65,1480.04C1451.56,1482.97 1444.2,1485.31 1436.58,1487.07C1428.96,1488.82 1421.25,1489.7 1413.44,1489.7ZM1387.46,1397.91C1392.15,1397.91 1397.26,1396.7 1402.79,1394.29C1408.33,1391.88 1413.47,1388.79 1418.22,1385.02C1422.98,1381.24 1427.63,1376.16 1432.19,1369.78C1436.74,1363.4 1439.02,1358.13 1439.02,1353.96C1439.02,1348.1 1437.95,1343.28 1435.8,1339.51C1433.65,1335.73 1431.02,1333.84 1427.89,1333.84C1422.29,1333.84 1417.51,1334.89 1413.54,1336.97C1409.56,1339.05 1406.24,1341.75 1403.57,1345.07C1400.91,1348.39 1398.76,1352.17 1397.13,1356.4C1395.5,1360.63 1393.61,1365.88 1391.46,1372.13C1389.32,1378.38 1388.11,1383.52 1387.85,1387.55C1387.59,1391.59 1387.46,1395.04 1387.46,1397.91Z" style="fill:none;stroke-width:12px;stroke:rgb(235,235,235);"/>
                <path d="M1680.82,1454.94C1693.97,1454.94 1705.95,1453.64 1716.76,1451.03C1727.57,1448.43 1737.36,1444.91 1746.15,1440.48C1754.94,1436.06 1762.88,1430.88 1769.98,1424.96C1777.08,1419.03 1783.49,1412.69 1789.22,1405.91L1791.37,1450.64C1787.2,1455.72 1782.16,1460.63 1776.23,1465.39C1770.31,1470.14 1763.83,1474.31 1756.8,1477.89C1749.77,1481.47 1742.38,1484.33 1734.63,1486.48C1726.88,1488.63 1719.23,1489.7 1711.68,1489.7C1710.77,1489.7 1709.63,1489.57 1708.26,1489.31C1706.89,1489.05 1704.52,1488.6 1701.13,1487.95C1697.75,1487.29 1692.9,1486.42 1686.58,1485.31C1680.27,1484.2 1671.71,1482.87 1660.9,1481.3L1660.9,1484.82C1660.9,1508.52 1658.91,1530.04 1654.94,1549.37C1650.97,1568.71 1645.66,1585.21 1639.02,1598.88C1632.38,1612.55 1624.77,1623.1 1616.17,1630.52C1607.58,1637.95 1598.66,1641.66 1589.41,1641.66C1581.99,1641.66 1575.81,1639.83 1570.86,1636.19C1565.91,1632.54 1561.97,1627.63 1559.04,1621.44C1556.11,1615.26 1554.03,1608.03 1552.79,1599.76C1551.56,1591.49 1550.94,1582.74 1550.94,1573.49C1550.94,1568.15 1551.78,1562.13 1553.48,1555.43C1555.17,1548.72 1557.45,1541.69 1560.31,1534.33C1563.18,1526.98 1566.4,1519.49 1569.98,1511.87C1573.56,1504.25 1577.24,1496.86 1581.02,1489.7C1589.87,1473.04 1599.96,1455.85 1611.29,1438.14C1612.72,1427.98 1614.19,1417.57 1615.68,1406.89C1617.18,1396.21 1619.07,1385.86 1621.35,1375.84C1623.63,1365.81 1627.14,1355.3 1631.89,1344.29C1636.65,1333.29 1641.73,1324.47 1647.13,1317.83C1652.53,1311.19 1659.01,1305.91 1666.56,1302.01C1674.11,1298.1 1683.23,1296.15 1693.91,1296.15C1701.85,1296.15 1709.27,1297.22 1716.17,1299.37C1723.07,1301.52 1729.13,1305 1734.34,1309.82C1739.54,1314.64 1743.65,1320.86 1746.64,1328.47C1749.64,1336.09 1751.13,1345.43 1751.13,1356.5C1751.13,1368.74 1749.83,1378.31 1747.23,1385.21C1743.32,1395.5 1738.27,1404.42 1732.09,1411.97C1725.91,1419.52 1718.55,1426.58 1710.02,1433.16C1701.49,1439.74 1691.37,1445.63 1679.65,1450.84L1680.82,1454.94ZM1656.21,1435.21C1664.02,1431.3 1670.79,1426.94 1676.52,1422.13C1681.99,1417.31 1686.81,1412.16 1690.98,1406.7C1692.67,1406.44 1696.71,1400.45 1703.09,1388.73C1707.38,1378.7 1710.12,1371.02 1711.29,1365.68C1711.94,1362.82 1712.36,1359.46 1712.56,1355.62C1712.75,1351.78 1712.36,1348.17 1711.39,1344.78C1710.41,1341.4 1708.72,1338.5 1706.31,1336.09C1703.9,1333.68 1700.55,1332.48 1696.25,1332.48C1691.43,1332.48 1687.2,1333.81 1683.55,1336.48C1679.91,1339.15 1676.75,1342.76 1674.08,1347.32C1671.41,1351.88 1669.2,1357.28 1667.44,1363.53C1665.68,1369.78 1663.6,1377.5 1661.19,1386.68C1658.78,1395.86 1657.35,1404.32 1656.89,1412.07C1656.44,1419.81 1656.21,1427.53 1656.21,1435.21ZM1588.24,1575.84C1588.24,1576.88 1588.47,1578.57 1588.93,1580.91C1589.38,1583.26 1590.13,1585.6 1591.17,1587.95C1592.21,1590.29 1593.58,1592.37 1595.27,1594.2C1596.97,1596.02 1599.05,1596.93 1601.52,1596.93C1603.74,1596.93 1605.56,1595.73 1606.99,1593.32C1608.42,1590.91 1609.6,1587.69 1610.51,1583.65C1611.42,1579.61 1612.07,1575.05 1612.46,1569.98C1612.85,1564.9 1613.18,1559.69 1613.44,1554.35C1613.7,1549.01 1613.86,1543.8 1613.93,1538.73C1613.99,1533.65 1614.15,1529.09 1614.41,1525.05C1614.8,1518.02 1615.1,1512.07 1615.29,1507.18C1615.49,1502.3 1615.65,1498.23 1615.78,1494.98C1615.91,1491.33 1616.04,1488.27 1616.17,1485.8C1613.7,1490.09 1611.29,1495.07 1608.95,1500.74C1606.6,1506.4 1604.39,1512.29 1602.3,1518.41C1600.22,1524.53 1598.33,1530.65 1596.64,1536.77C1594.95,1542.89 1593.48,1548.59 1592.25,1553.86C1591.01,1559.14 1590.03,1563.69 1589.32,1567.54C1588.6,1571.38 1588.24,1574.14 1588.24,1575.84Z" style="fill:none;stroke-width:12px;stroke:rgb(235,235,235);"/>
                <path d="M1888.24,1448.1C1883.55,1452.4 1877.73,1456.99 1870.76,1461.87C1863.8,1466.75 1856.28,1471.25 1848.2,1475.35C1840.13,1479.45 1831.89,1482.87 1823.5,1485.6C1815.1,1488.34 1807.12,1489.7 1799.57,1489.7C1792.8,1489.7 1787.1,1488.76 1782.48,1486.87C1777.86,1484.98 1774.11,1482.35 1771.25,1478.96C1768.39,1475.58 1766.33,1471.44 1765.1,1466.56C1763.86,1461.68 1763.24,1456.3 1763.24,1450.45C1763.24,1442.24 1764.15,1432.67 1765.98,1421.73C1769.62,1400.64 1771.97,1388.79 1773.01,1386.19C1774.83,1380.46 1778.48,1367.76 1783.95,1348.1C1788.37,1331.7 1791.11,1321.02 1792.15,1316.07C1792.8,1312.82 1794.62,1309.89 1797.62,1307.28C1800.35,1304.94 1803.44,1303.02 1806.89,1301.52C1810.35,1300.02 1813.93,1298.92 1817.64,1298.2C1821.35,1297.48 1824.7,1297.13 1827.7,1297.13C1833.16,1297.13 1836.88,1298.13 1838.83,1300.15C1840.78,1302.17 1841.76,1304.87 1841.76,1308.26C1841.76,1311.12 1841.11,1315.26 1839.8,1320.66C1838.5,1326.06 1836.88,1332.18 1834.92,1339.02C1832.97,1345.86 1830.49,1354.06 1827.5,1363.63C1824.51,1373.2 1822.03,1381.92 1820.08,1389.8C1818.13,1397.68 1816.5,1405.36 1815.2,1412.85C1813.89,1420.33 1813.24,1427.07 1813.24,1433.06C1813.24,1438.92 1813.89,1443.58 1815.2,1447.03C1816.5,1450.48 1819.17,1452.2 1823.2,1452.2C1827.89,1452.2 1833.1,1450.58 1838.83,1447.32C1844.56,1444.07 1850.35,1440.13 1856.21,1435.5C1862.07,1430.88 1867.8,1426.1 1873.4,1421.15C1879,1416.2 1883.95,1411.97 1888.24,1408.45L1888.24,1448.1ZM1800.94,1243.41C1800.94,1240.42 1801.59,1237.03 1802.89,1233.26C1804.19,1229.48 1806.31,1225.93 1809.24,1222.61C1812.17,1219.29 1816.07,1216.49 1820.96,1214.22C1825.84,1211.94 1831.93,1210.8 1839.22,1210.8C1843.78,1210.8 1848.07,1211.32 1852.11,1212.36C1856.15,1213.4 1859.66,1215 1862.66,1217.14C1865.65,1219.29 1868.03,1222.13 1869.79,1225.64C1871.54,1229.16 1872.42,1233.32 1872.42,1238.14C1872.42,1242.57 1871.71,1246.86 1870.27,1251.03C1868.84,1255.2 1866.56,1258.91 1863.44,1262.16C1860.31,1265.42 1856.37,1268.06 1851.62,1270.07C1846.87,1272.09 1841.17,1273.1 1834.53,1273.1C1823.07,1273.1 1814.61,1270.4 1809.14,1265C1803.67,1259.59 1800.94,1252.4 1800.94,1243.41Z" style="fill:none;stroke-width:12px;stroke:rgb(235,235,235);"/>
                <path d="M1934.92,1489.7C1922.94,1489.7 1912.43,1487.49 1903.38,1483.06C1894.33,1478.64 1886.74,1472.71 1880.63,1465.29C1874.51,1457.87 1869.88,1449.27 1866.76,1439.51C1863.63,1429.74 1862.07,1419.59 1862.07,1409.04C1862.07,1401.49 1863.37,1392.44 1865.98,1381.89C1868.58,1371.34 1871.41,1362.13 1874.47,1354.25C1877.53,1346.38 1881.31,1338.86 1885.8,1331.7C1890.29,1324.53 1895.5,1318.25 1901.43,1312.85C1907.35,1307.44 1913.96,1303.15 1921.25,1299.96C1928.54,1296.77 1936.55,1295.17 1945.27,1295.17C1952.7,1295.17 1959.56,1296.31 1965.88,1298.59C1972.19,1300.87 1977.6,1304.03 1982.09,1308.06C1986.58,1312.1 1990.1,1316.88 1992.64,1322.42C1995.18,1327.95 1996.45,1333.91 1996.45,1340.29C1996.45,1344.72 1995.86,1349.08 1994.69,1353.38C1993.52,1357.67 1991.24,1362.72 1987.85,1368.51C1984.47,1374.31 1981.18,1378.25 1977.99,1380.33C1974.8,1382.41 1971.19,1383.45 1967.15,1383.45C1960.9,1383.45 1956.86,1381.83 1955.04,1378.57C1952.04,1373.49 1951.13,1369 1952.3,1365.09C1952.7,1363.01 1953.87,1358.19 1955.82,1350.64C1956.08,1349.6 1956.15,1347.26 1956.02,1343.61C1956.02,1340.48 1955.69,1337.88 1955.04,1335.8C1954.39,1333.71 1952.96,1332.67 1950.74,1332.67C1945.4,1332.67 1940.85,1333.94 1937.07,1336.48C1933.29,1339.02 1930.07,1342.34 1927.4,1346.44C1924.73,1350.54 1922.1,1356.34 1919.49,1363.82C1916.89,1371.31 1915.03,1377.59 1913.93,1382.67C1912.82,1387.75 1912.14,1392.6 1911.88,1397.22C1911.61,1401.85 1911.48,1405.72 1911.48,1408.84C1911.48,1413.53 1911.91,1418.41 1912.75,1423.49C1913.6,1428.57 1915.29,1433.23 1917.83,1437.46C1920.37,1441.69 1923.66,1445.2 1927.7,1448C1931.73,1450.8 1936.94,1452.2 1943.32,1452.2C1949.57,1452.2 1956.47,1450.28 1964.02,1446.44C1971.58,1442.6 1979.16,1437.75 1986.78,1431.89C1994.39,1426.03 2001.65,1419.59 2008.55,1412.55C2015.46,1405.52 2021.38,1398.88 2026.33,1392.63L2039.8,1415.29C2030.04,1429.22 2019.49,1441.66 2008.16,1452.59C2003.35,1457.28 1998.11,1461.84 1992.44,1466.27C1986.78,1470.69 1980.85,1474.63 1974.67,1478.08C1968.48,1481.53 1962.04,1484.33 1955.33,1486.48C1948.63,1488.63 1941.82,1489.7 1934.92,1489.7Z" style="fill:none;stroke-width:12px;stroke:rgb(235,235,235);"/>
                <path d="M2184.34,1445.95C2171.84,1453.25 2160.7,1459.63 2150.94,1465.09C2141.17,1470.56 2132.48,1475.12 2124.86,1478.77C2117.25,1482.41 2110.48,1485.15 2104.55,1486.97C2098.63,1488.79 2093.26,1489.7 2088.44,1489.7C2078.54,1489.7 2069.82,1486.71 2062.27,1480.72C2054.71,1474.73 2048.4,1466.1 2043.32,1454.84C2038.24,1443.58 2034.43,1429.94 2031.89,1413.92C2029.36,1397.91 2028.09,1379.87 2028.09,1359.82C2028.09,1352.01 2028.41,1343.67 2029.06,1334.82C2029.71,1325.97 2030.63,1317.18 2031.8,1308.45C2027.89,1307.93 2024.86,1307.44 2022.71,1306.99C2020.57,1306.53 2018.29,1306.08 2015.88,1305.62C2013.47,1305.17 2010.41,1304.68 2006.7,1304.16C2002.99,1303.64 1997.62,1302.98 1990.59,1302.2C1987.46,1301.81 1985.05,1301.06 1983.36,1299.96C1981.67,1298.85 1980.43,1297.55 1979.65,1296.05C1978.87,1294.55 1978.41,1292.99 1978.28,1291.36C1978.15,1289.74 1978.09,1288.34 1978.09,1287.16C1978.09,1284.56 1979.36,1282.57 1981.89,1281.21C1984.43,1279.84 1987.69,1278.83 1991.66,1278.18C1995.63,1277.53 1999.99,1277.17 2004.75,1277.11C2009.5,1277.04 2014.06,1277.07 2018.42,1277.2C2022.78,1277.33 2026.69,1277.43 2030.14,1277.5C2033.59,1277.56 2035.96,1277.46 2037.27,1277.2C2040.78,1259.63 2045.24,1242.6 2050.64,1226.13C2056.05,1209.66 2062.1,1195.01 2068.81,1182.18C2075.51,1169.36 2082.84,1159.07 2090.78,1151.32C2098.72,1143.58 2107.06,1139.7 2115.78,1139.7C2121.38,1139.7 2126.49,1141.27 2131.11,1144.39C2135.74,1147.52 2139.67,1151.68 2142.93,1156.89C2146.19,1162.1 2148.69,1168.19 2150.45,1175.15C2152.21,1182.12 2153.09,1189.38 2153.09,1196.93C2153.09,1203.31 2152.17,1210.05 2150.35,1217.14C2148.53,1224.24 2146.05,1231.47 2142.93,1238.82C2139.8,1246.18 2136.13,1253.64 2131.89,1261.19C2127.66,1268.74 2123.2,1276.23 2118.52,1283.65C2119.69,1283.78 2121.64,1283.84 2124.38,1283.84C2127.11,1283.84 2130.27,1283.94 2133.85,1284.14C2137.43,1284.33 2141.3,1284.53 2145.47,1284.72C2149.64,1284.92 2153.67,1285.08 2157.58,1285.21C2161.48,1285.34 2165.13,1285.47 2168.52,1285.6C2171.9,1285.73 2174.7,1285.86 2176.91,1285.99C2179.52,1286.12 2181.41,1287.42 2182.58,1289.9C2183.75,1292.37 2184.34,1295.5 2184.34,1299.27C2184.34,1303.83 2183.03,1307.54 2180.43,1310.41C2177.83,1313.27 2174.96,1314.7 2171.84,1314.7L2096.84,1314.7C2093.06,1319.91 2089.25,1325.02 2085.41,1330.04C2081.57,1335.05 2078.02,1339.57 2074.77,1343.61C2074.24,1351.68 2073.79,1359.63 2073.4,1367.44C2073.27,1370.82 2073.14,1374.31 2073.01,1377.89C2072.88,1381.47 2072.75,1385.02 2072.62,1388.53C2072.49,1392.05 2072.39,1395.43 2072.32,1398.69C2072.26,1401.94 2072.23,1404.94 2072.23,1407.67C2072.23,1414.7 2072.88,1420.63 2074.18,1425.45C2075.48,1430.26 2077.37,1434.2 2079.84,1437.26C2082.32,1440.32 2085.35,1442.54 2088.93,1443.9C2092.51,1445.27 2096.51,1445.95 2100.94,1445.95C2103.67,1445.95 2107.09,1445.3 2111.19,1444C2115.29,1442.7 2119.79,1440.91 2124.67,1438.63C2129.55,1436.35 2134.69,1433.65 2140.1,1430.52C2145.5,1427.4 2150.84,1423.98 2156.11,1420.27C2161.39,1416.56 2166.43,1412.65 2171.25,1408.55C2176.07,1404.45 2180.43,1400.25 2184.34,1395.95L2184.34,1445.95ZM2121.84,1198.69C2121.84,1197.26 2121.74,1195.66 2121.54,1193.9C2121.35,1192.14 2120.92,1190.48 2120.27,1188.92C2119.62,1187.36 2118.61,1186.06 2117.25,1185.02C2115.88,1183.97 2113.96,1183.45 2111.48,1183.45C2108.1,1183.45 2104.68,1186.45 2101.23,1192.44C2097.78,1198.43 2094.46,1206.08 2091.27,1215.39C2088.08,1224.7 2085.08,1234.95 2082.29,1246.15C2079.49,1257.35 2076.91,1268.22 2074.57,1278.77C2076.52,1279.03 2078.48,1279.25 2080.43,1279.45C2082.38,1279.64 2084.4,1279.87 2086.48,1280.13C2090.39,1273.49 2094.46,1266.3 2098.69,1258.55C2102.92,1250.8 2106.73,1243.19 2110.12,1235.7C2113.5,1228.21 2116.3,1221.21 2118.52,1214.7C2120.73,1208.19 2121.84,1202.85 2121.84,1198.69Z" style="fill:none;stroke-width:12px;stroke:rgb(235,235,235);"/>
                <path d="M2317.34,1307.67C2317.34,1311.19 2316.95,1315.97 2316.17,1322.03C2315.39,1328.08 2314.38,1334.72 2313.14,1341.95C2311.91,1349.18 2310.21,1357.83 2308.07,1367.93C2305.92,1378.02 2304.23,1386.38 2302.99,1393.02C2301.75,1399.66 2300.74,1405.49 2299.96,1410.5C2299.18,1415.52 2298.79,1419 2298.79,1420.95C2298.79,1424.6 2298.85,1427.95 2298.98,1431.01C2299.11,1434.07 2299.51,1436.74 2300.16,1439.02C2300.81,1441.3 2301.82,1443.06 2303.18,1444.29C2304.55,1445.53 2306.54,1446.15 2309.14,1446.15C2312.01,1446.15 2315.49,1445.43 2319.59,1444C2323.69,1442.57 2328.05,1440.65 2332.68,1438.24C2337.3,1435.83 2342.02,1433.1 2346.84,1430.04C2351.65,1426.98 2356.24,1423.75 2360.61,1420.37C2364.97,1416.98 2368.94,1413.63 2372.52,1410.31C2376.1,1406.99 2379,1403.9 2381.21,1401.03C2381.21,1405.33 2381.24,1409.23 2381.31,1412.75C2381.37,1416.27 2381.41,1419.62 2381.41,1422.81C2381.41,1426 2381.44,1429.29 2381.5,1432.67C2381.57,1436.06 2381.6,1439.83 2381.6,1444C2378.74,1446.86 2375.19,1449.92 2370.96,1453.18C2366.73,1456.44 2362.04,1459.69 2356.89,1462.95C2351.75,1466.2 2346.28,1469.33 2340.49,1472.32C2334.69,1475.32 2328.87,1477.95 2323.01,1480.23C2317.15,1482.51 2311.35,1484.33 2305.63,1485.7C2299.9,1487.07 2294.56,1487.75 2289.61,1487.75C2284.66,1487.75 2280.43,1486.77 2276.91,1484.82C2273.4,1482.87 2270.37,1480.13 2267.83,1476.62C2265.29,1473.1 2263.14,1468.9 2261.39,1464.02C2259.63,1459.14 2258.1,1453.7 2256.8,1447.71C2252.11,1453.83 2247.16,1459.46 2241.95,1464.61C2236.74,1469.75 2231.44,1474.21 2226.04,1477.98C2220.63,1481.76 2215.16,1484.72 2209.63,1486.87C2204.1,1489.02 2198.72,1490.09 2193.52,1490.09C2189.22,1490.09 2185.18,1489.38 2181.41,1487.95C2177.63,1486.51 2174.28,1484.1 2171.35,1480.72C2168.42,1477.33 2166.11,1472.87 2164.41,1467.34C2162.72,1461.81 2161.88,1454.94 2161.88,1446.73C2162.01,1429.68 2163.24,1416.59 2165.59,1407.48C2169.49,1394.2 2173.14,1374.4 2176.52,1348.1C2176.78,1346.15 2177.27,1343.51 2177.99,1340.19C2178.7,1336.87 2179.68,1333.26 2180.92,1329.35C2182.16,1325.45 2183.69,1321.47 2185.51,1317.44C2187.33,1313.4 2189.48,1309.76 2191.95,1306.5C2194.43,1303.25 2197.32,1300.58 2200.64,1298.49C2203.96,1296.41 2207.71,1295.3 2211.88,1295.17C2218.78,1295.43 2223.72,1296.31 2226.72,1297.81C2229.71,1299.31 2231.21,1301.16 2231.21,1303.38C2230.04,1310.28 2228.77,1317.96 2227.4,1326.42C2226.04,1334.89 2224.64,1343.41 2223.2,1352.01C2221.77,1360.6 2220.05,1370.17 2218.03,1380.72C2216.01,1391.27 2214.48,1399.73 2213.44,1406.11C2212.4,1412.49 2211.58,1417.63 2211,1421.54C2210.41,1425.45 2210.12,1427.46 2210.12,1427.59C2210.12,1429.94 2210.35,1432.18 2210.8,1434.33C2211.26,1436.48 2211.94,1438.4 2212.85,1440.09C2213.76,1441.79 2214.94,1443.15 2216.37,1444.2C2217.8,1445.24 2219.49,1445.76 2221.45,1445.76C2224.31,1445.76 2227.24,1445.01 2230.23,1443.51C2233.23,1442.01 2236.03,1439.83 2238.63,1436.97C2241.37,1434.36 2243.78,1430.98 2245.86,1426.81C2247.94,1422.78 2249.51,1418.09 2250.55,1412.75L2272.03,1306.3C2272.68,1303.18 2275.32,1300.54 2279.94,1298.39C2284.56,1296.25 2289.8,1295.17 2295.66,1295.17C2302.3,1295.17 2307.58,1296.34 2311.48,1298.69C2315.39,1301.03 2317.34,1304.03 2317.34,1307.67Z" style="fill:none;stroke-width:12px;stroke:rgb(235,235,235);"/>
                <path d="M2358.55,1448.88C2358.55,1443.15 2358.88,1436.48 2359.53,1428.86C2360.18,1421.25 2361.06,1413.21 2362.17,1404.74C2363.27,1396.28 2364.58,1387.65 2366.07,1378.86C2367.57,1370.07 2369.49,1360.7 2371.84,1350.74C2374.18,1340.78 2376.2,1332.48 2377.89,1325.84C2379.58,1319.2 2381.28,1313.73 2382.97,1309.43C2384.01,1306.57 2385.05,1304.29 2386.09,1302.59C2387.14,1300.9 2388.34,1299.57 2389.71,1298.59C2391.07,1297.61 2392.77,1296.96 2394.79,1296.64C2396.8,1296.31 2399.31,1296.15 2402.3,1296.15C2405.69,1296.15 2408.33,1296.31 2410.21,1296.64C2412.1,1296.96 2413.5,1297.74 2414.41,1298.98C2415.33,1300.22 2415.88,1302.01 2416.07,1304.35C2416.27,1306.7 2416.37,1309.89 2416.37,1313.92C2416.37,1318.74 2416.04,1325.58 2415.39,1334.43C2414.74,1343.28 2414.54,1351.03 2414.8,1357.67L2416.95,1357.67C2419.56,1352.46 2422.81,1345.63 2426.72,1337.16C2430.63,1328.7 2434.73,1321.67 2439.02,1316.07C2443.32,1310.47 2448.2,1305.75 2453.67,1301.91C2459.14,1298.07 2465.46,1296.15 2472.62,1296.15C2475.09,1296.15 2477.5,1296.57 2479.84,1297.42C2482.19,1298.26 2484.24,1299.47 2486,1301.03C2487.75,1302.59 2489.15,1304.51 2490.2,1306.79C2491.24,1309.07 2491.76,1311.64 2491.76,1314.51C2491.76,1316.72 2491.43,1319.81 2490.78,1323.79C2490.13,1327.76 2489.09,1332.93 2487.66,1339.31C2486.22,1345.69 2485.18,1350.93 2484.53,1355.04C2483.88,1359.14 2483.55,1362.55 2483.55,1365.29C2483.55,1369.98 2484.01,1373.88 2484.92,1377.01C2485.83,1380.13 2487.04,1382.64 2488.54,1384.53C2490.03,1386.42 2491.73,1387.75 2493.61,1388.53C2495.5,1389.31 2497.49,1389.7 2499.57,1389.7C2505.43,1389.7 2511.48,1388.4 2517.73,1385.8C2523.98,1383.19 2529.71,1380.26 2534.92,1377.01C2541.04,1373.23 2547.03,1368.94 2552.89,1364.12L2549.96,1409.82C2546.58,1412.03 2542.73,1414.51 2538.44,1417.24C2534.14,1419.98 2529.55,1422.55 2524.67,1424.96C2519.79,1427.37 2514.71,1429.38 2509.43,1431.01C2504.16,1432.64 2498.79,1433.45 2493.32,1433.45C2483.55,1433.45 2475.68,1431.47 2469.69,1427.5C2463.7,1423.52 2458.95,1418.32 2455.43,1411.87C2451.91,1405.43 2449.31,1398.2 2447.62,1390.19C2445.92,1382.18 2444.56,1374.08 2443.52,1365.88L2440.39,1365.88L2405.43,1463.34C2403.61,1468.41 2401.88,1472.61 2400.25,1475.93C2398.63,1479.25 2396.97,1481.96 2395.27,1484.04C2393.58,1486.12 2391.76,1487.59 2389.8,1488.43C2387.85,1489.28 2385.7,1489.7 2383.36,1489.7C2378.02,1489.7 2373.72,1488.56 2370.47,1486.29C2367.21,1484.01 2364.71,1480.95 2362.95,1477.11C2361.19,1473.26 2360.02,1468.9 2359.43,1464.02C2358.85,1459.14 2358.55,1454.09 2358.55,1448.88Z" style="fill:none;stroke-width:12px;stroke:rgb(235,235,235);"/>
                <path d="M2592.93,1489.7C2580.69,1489.7 2569.98,1487.49 2560.8,1483.06C2551.62,1478.64 2543.97,1472.68 2537.85,1465.19C2531.73,1457.7 2527.14,1449.05 2524.08,1439.22C2521.02,1429.38 2519.49,1419.07 2519.49,1408.26C2519.49,1400.97 2520.86,1392.27 2523.59,1382.18C2526.33,1372.09 2529.16,1363.14 2532.09,1355.33C2535.02,1347.52 2538.7,1340.06 2543.13,1332.97C2547.55,1325.87 2552.73,1319.62 2558.65,1314.22C2564.58,1308.81 2571.22,1304.51 2578.57,1301.32C2585.93,1298.13 2594.1,1296.54 2603.09,1296.54C2610.38,1296.54 2617.15,1297.71 2623.4,1300.05C2629.65,1302.4 2635.08,1305.69 2639.71,1309.92C2644.33,1314.15 2647.94,1319.26 2650.55,1325.25C2653.15,1331.24 2654.45,1337.95 2654.45,1345.37C2654.45,1353.44 2651.82,1362.49 2646.54,1372.52C2641.27,1382.54 2635.12,1391.14 2628.09,1398.3C2621.05,1405.46 2612.69,1411.84 2602.99,1417.44C2593.29,1423.04 2582.77,1427.4 2571.45,1430.52C2573.4,1434.04 2575.32,1436.97 2577.21,1439.31C2579.1,1441.66 2581.02,1443.48 2582.97,1444.78C2584.92,1446.08 2586.97,1447 2589.12,1447.52C2591.27,1448.04 2593.58,1448.3 2596.05,1448.3C2603.87,1448.3 2612.1,1446.73 2620.76,1443.61C2629.42,1440.48 2637.85,1436.58 2646.05,1431.89C2654.26,1427.2 2662.01,1422.09 2669.3,1416.56C2676.59,1411.02 2682.77,1405.78 2687.85,1400.84L2713.05,1427.01C2701.59,1438.86 2689.41,1449.34 2676.52,1458.45C2670.92,1462.36 2664.9,1466.2 2658.46,1469.98C2652.01,1473.75 2645.24,1477.11 2638.14,1480.04C2631.05,1482.97 2623.69,1485.31 2616.07,1487.07C2608.46,1488.82 2600.74,1489.7 2592.93,1489.7ZM2566.95,1397.91C2571.64,1397.91 2576.75,1396.7 2582.29,1394.29C2587.82,1391.88 2592.96,1388.79 2597.71,1385.02C2602.47,1381.24 2607.12,1376.16 2611.68,1369.78C2616.24,1363.4 2618.52,1358.13 2618.52,1353.96C2618.52,1348.1 2617.44,1343.28 2615.29,1339.51C2613.14,1335.73 2610.51,1333.84 2607.38,1333.84C2601.78,1333.84 2597,1334.89 2593.03,1336.97C2589.06,1339.05 2585.74,1341.75 2583.07,1345.07C2580.4,1348.39 2578.25,1352.17 2576.62,1356.4C2574.99,1360.63 2573.11,1365.88 2570.96,1372.13C2568.81,1378.38 2567.6,1383.52 2567.34,1387.55C2567.08,1391.59 2566.95,1395.04 2566.95,1397.91Z" style="fill:none;stroke-width:12px;stroke:rgb(235,235,235);"/>
                <path d="M2667.93,1414.7C2675.22,1408.45 2681.15,1403.25 2685.7,1399.08C2690.26,1394.91 2694.82,1390.06 2699.38,1384.53C2703.93,1378.99 2707.55,1374.47 2710.21,1370.95C2712.88,1367.44 2716.04,1363.27 2719.69,1358.45C2723.33,1353.64 2727.76,1347.74 2732.97,1340.78C2738.18,1333.81 2744.95,1325.12 2753.28,1314.7C2754.97,1312.36 2756.86,1310.08 2758.95,1307.87C2761.03,1305.65 2763.34,1303.67 2765.88,1301.91C2768.42,1300.15 2771.22,1298.72 2774.28,1297.61C2777.34,1296.51 2780.76,1295.95 2784.53,1295.95C2790.78,1295.95 2795.6,1296.64 2798.98,1298C2802.37,1299.37 2804.84,1301.03 2806.41,1302.98C2807.97,1304.94 2808.88,1306.99 2809.14,1309.14C2809.4,1311.29 2809.53,1313.14 2809.53,1314.7C2809.53,1317.83 2808.29,1321.28 2805.82,1325.05C2803.35,1328.83 2800.61,1332.48 2797.62,1335.99C2794.62,1339.51 2791.79,1342.73 2789.12,1345.66C2786.45,1348.59 2784.92,1350.77 2784.53,1352.2C2784.53,1356.24 2784.82,1359.92 2785.41,1363.24C2786,1366.56 2786.78,1369.81 2787.75,1373C2788.73,1376.19 2789.74,1379.58 2790.78,1383.16C2791.82,1386.74 2792.83,1390.88 2793.81,1395.56C2794.79,1400.25 2794.92,1406.7 2794.2,1414.9C2793.48,1423.1 2793.13,1431.37 2793.13,1439.7C2797.81,1436.58 2802.86,1433.75 2808.26,1431.21C2813.67,1428.67 2819.3,1426.03 2825.16,1423.3C2831.02,1420.56 2837.04,1417.54 2843.22,1414.22C2849.41,1410.89 2855.63,1406.89 2861.88,1402.2L2862.07,1445.95C2854,1452.2 2844.66,1458.06 2834.04,1463.53C2823.43,1469 2812.3,1473.82 2800.64,1477.98C2788.99,1482.15 2777.21,1485.44 2765.29,1487.85C2753.38,1490.26 2742.08,1491.46 2731.41,1491.46C2723.72,1491.46 2716.56,1490.75 2709.92,1489.31C2703.28,1487.88 2697.45,1485.63 2692.44,1482.57C2687.43,1479.51 2683.36,1475.51 2680.23,1470.56C2677.11,1465.61 2675.22,1459.63 2674.57,1452.59C2672.75,1452.98 2670.96,1453.25 2669.2,1453.38C2667.44,1453.51 2665.72,1453.57 2664.02,1453.57C2661.94,1453.57 2659.99,1453.51 2658.16,1453.38C2656.34,1453.25 2654.78,1452.76 2653.48,1451.91C2652.17,1451.06 2651.13,1449.7 2650.35,1447.81C2649.57,1445.92 2649.18,1443.22 2649.18,1439.7C2649.18,1436.58 2649.96,1433.68 2651.52,1431.01C2653.09,1428.34 2654.91,1425.97 2656.99,1423.88C2659.08,1421.8 2661.16,1419.98 2663.24,1418.41C2665.33,1416.85 2666.89,1415.61 2667.93,1414.7ZM2692.93,1439.7C2694.49,1439.7 2696.22,1440.68 2698.11,1442.63C2699.99,1444.59 2702.17,1446.73 2704.65,1449.08C2707.12,1451.42 2709.99,1453.57 2713.24,1455.52C2716.5,1457.48 2720.21,1458.45 2724.38,1458.45C2729.45,1458.45 2733.65,1457.61 2736.97,1455.91C2740.29,1454.22 2742.93,1451.98 2744.88,1449.18C2746.84,1446.38 2748.2,1443.12 2748.98,1439.41C2749.77,1435.7 2750.16,1431.83 2750.16,1427.79C2750.16,1424.27 2749.93,1420.69 2749.47,1417.05C2749.02,1413.4 2749.08,1408.88 2749.67,1403.47C2750.25,1398.07 2750.12,1393.9 2749.28,1390.97C2748.43,1388.04 2747.68,1385.54 2747.03,1383.45L2692.93,1439.7Z" style="fill:none;stroke-width:12px;stroke:rgb(235,235,235);"/>
            </g>
        </g>
    </g>
</svg>
