<?xml version="1.0" standalone="no"?>
<!DOCTYPE svg PUBLIC "-//W3C//DTD SVG 1.1//EN" "http://www.w3.org/Graphics/SVG/1.1/DTD/svg11.dtd">
<svg width="100%" height="100%" viewBox="0 0 3072 3072" version="1.1" xmlns="http://www.w3.org/2000/svg" xmlns:xlink="http://www.w3.org/1999/xlink" xml:space="preserve" style="fill-rule:evenodd;clip-rule:evenodd;stroke-linejoin:round;stroke-miterlimit:1.41421;">
    <g>
        <g id="Layer1">
            <path d="M1694.35,1690.53L1691.15,1765.53C1691.15,1893.32 1656.68,1990 1587.74,2055.58C1518.8,2121.16 1417.91,2153.95 1285.07,2153.95C1152.24,2153.95 1051.35,2121.16 982.408,2055.58C913.468,1990 878.997,1893.32 878.997,1765.53L878.997,1094.62L1116.09,1094.62L1116.09,1696.17C1116.09,1780.24 1129.33,1838.67 1155.81,1871.46C1182.29,1904.25 1225.38,1920.64 1285.07,1920.64C1344.77,1920.64 1387.86,1904.25 1414.34,1871.46C1440.82,1838.67 1450.86,1774.43 1450.86,1690.35L1448.97,1690.53L1694.35,1690.53Z" style="fill:rgb(253,177,52);fill-rule:nonzero;"/>
            <g id="Layer2">
                <path d="M2220.7,1931.07L1956.13,1931.07L1645.6,1573.55L1695.01,1664.81L1451.12,1663.33L1446.03,1090.29L1645.6,1088.34L1645.6,1432.58L1934.68,1088.34L2167.58,1088.34L1828.45,1487.74L2220.7,1931.07Z" style="fill:rgb(155,210,218);fill-rule:nonzero;"/>
            </g>
        </g>
    </g>
</svg>
